# xmcd
#
# Track frame offsets:
#	150
#	21419
#	36811
#	53445
#	70307
#	88429
#	104787
#	124232
#	140866
#	153390
#	170213
#	186157
#
# Disc length: 2726 seconds
#
# Revision: 0
# Processed by: cddbd v1.5.2PL0 Copyright (c) Steve Scherf et al.
# Submitted via: audiograbber 1.83.01
#
DISCID=b90aa40c
DTITLE=Various Artist - 60457
DYEAR=2011
DGENRE=Country
TTITLE0=Brad Paisley - This Is Country Music
TTITLE1=Alan Jackson and Lee Ann Womack - Ring Of Fire
TTITLE2=LeeAnn Rimes - Crazy Women
TTITLE3=Chuck Wicks - Old School
TTITLE4=Jesse Lee - Like My Mother Does
TTITLE5=Troy Olson - Good Hands
TTITLE6=Dierks Bentley, Miranda Lambert and Jamey Johnson - Bad Angel
TTITLE7=LoCash Cowboy - Keep In Mind
TTITLE8=Katie Armiger - Best Song Ever
TTITLE9=Walker Hayes - Pants
TTITLE10=Katrina Elam - Dream Big
TTITLE11=Randy Rogers Band - Steal You Away
EXTD=
EXTT0=
EXTT1=
EXTT2=
EXTT3=
EXTT4=
EXTT5=
EXTT6=
EXTT7=
EXTT8=
EXTT9=
EXTT10=
EXTT11=
PLAYORDER=
